<svg width="154" height="154" viewBox="0 0 154 154" fill="none" xmlns="http://www.w3.org/2000/svg">
<rect width="154" height="154" rx="16" fill="white"/>
<g clip-path="url(#clip0_2658_99)">
<path fill-rule="evenodd" clip-rule="evenodd" d="M59.6623 59.2784C51.9069 67.0337 50.4259 78.7065 55.253 87.954C56.881 91.0728 55.6722 94.9209 52.5534 96.5489C49.4345 98.1769 45.5864 96.9684 43.9585 93.8495C36.6301 79.8098 38.8506 62.0724 50.6534 50.2696C65.2029 35.72 88.7923 35.72 103.342 50.2696C117.891 64.8191 117.891 88.4084 103.342 102.958C91.539 114.761 73.8016 116.981 59.7619 109.653C56.643 108.025 55.4344 104.177 57.0623 101.058C58.6903 97.939 62.5384 96.7304 65.6573 98.3584C74.9047 103.185 86.5775 101.704 94.3328 93.949C103.907 84.375 103.907 68.8525 94.3328 59.2784C84.7589 49.7043 69.2363 49.7043 59.6623 59.2784Z" fill="black"/>
<path fill-rule="evenodd" clip-rule="evenodd" d="M43.2799 42.8986C24.6596 61.5191 24.6596 91.7085 43.2799 110.329C61.9004 128.949 92.09 128.949 110.71 110.329C127.355 93.6838 129.125 67.7814 116.002 49.1774C113.974 46.3026 114.66 42.328 117.535 40.3C120.41 38.2722 124.385 38.9588 126.413 41.8337C143.048 65.4172 140.822 98.2346 119.719 119.338C96.1234 142.934 57.8669 142.934 34.2711 119.338C10.6753 95.7421 10.6753 57.4856 34.2711 33.8898C55.4049 12.756 88.2868 10.5543 111.878 27.2687C114.748 29.3026 115.427 33.2785 113.393 36.1492C111.359 39.0199 107.383 39.6982 104.512 37.6643C85.9027 24.4793 59.9493 26.2294 43.2799 42.8986Z" fill="black"/>
<path d="M86.8242 66.7857C92.252 72.2134 92.252 81.0136 86.8242 86.4414C81.3965 91.8692 72.5962 91.8692 67.1685 86.4414C61.7407 81.0136 61.7407 72.2134 67.1685 66.7857C72.5962 61.3579 81.3965 61.3579 86.8242 66.7857Z" fill="#01FF86"/>
</g>
<defs>
<clipPath id="clip0_2658_99">
<rect x="16" y="16" width="122" height="122" rx="16" fill="white"/>
</clipPath>
</defs>
</svg>
