<svg width="366" height="79" viewBox="0 0 366 79" fill="none" xmlns="http://www.w3.org/2000/svg">
<g clip-path="url(#clip0_2640_56)">
<path d="M154.099 18.6702C158.101 18.6702 161.346 15.4255 161.346 11.423C161.346 7.42046 158.101 4.17578 154.099 4.17578C150.096 4.17578 146.852 7.42046 146.852 11.423C146.852 15.4255 150.096 18.6702 154.099 18.6702Z" fill="black"/>
<path d="M115.465 73.7175V34.3517H107.5V23.5935H115.465V20.145C115.465 16.4537 116.097 13.4423 117.36 11.111C118.639 8.76338 120.557 7.03105 123.115 5.91394C125.673 4.79683 128.96 4.23828 132.975 4.23828C133.963 4.23828 135.072 4.26256 136.302 4.31113C137.532 4.3597 138.714 4.43255 139.848 4.52969C139.912 4.52969 139.977 4.53779 140.042 4.55398H140.26V15.2637C140.034 15.2475 139.807 15.2394 139.58 15.2394C139.354 15.2232 139.119 15.207 138.876 15.1908C138.293 15.1747 137.719 15.1585 137.152 15.1423C136.585 15.1261 136.051 15.118 135.549 15.118C134.06 15.118 132.87 15.3285 131.979 15.7494C131.105 16.1542 130.465 16.7775 130.061 17.6193C129.672 18.4612 129.478 19.5621 129.478 20.9221V23.5935H140.066V34.3517H129.478V73.7175H115.465Z" fill="black"/>
<path d="M161.145 73.7178L161.146 23.5938H147.133V73.718L161.145 73.7178Z" fill="black"/>
<path d="M168.508 73.7175V23.5934H182.132V31.066C182.886 29.8345 183.76 28.7117 184.755 27.6975C186.406 26.0138 188.349 24.7186 190.583 23.8119C192.817 22.8891 195.262 22.4277 197.917 22.4277C201.528 22.4277 204.62 23.1157 207.194 24.4919C209.785 25.868 211.776 27.9566 213.168 30.7574C214.577 33.5583 215.281 37.0391 215.281 41.2V73.7175H201.269V43.2642C201.269 41.3214 200.937 39.6943 200.273 38.3829C199.625 37.0553 198.67 36.0677 197.407 35.4201C196.144 34.7563 194.582 34.4245 192.72 34.4245C190.972 34.4245 189.32 34.8292 187.766 35.6387C186.228 36.4482 184.965 37.7029 183.978 39.4029C183.006 41.0866 182.521 43.1913 182.521 45.717V73.7175H168.508Z" fill="black"/>
<path fill-rule="evenodd" clip-rule="evenodd" d="M230.742 71.6541C234.028 73.8074 237.865 74.884 242.253 74.884C246.64 74.884 250.315 73.7669 253.278 71.5327C255.173 70.0938 256.759 68.3107 258.038 66.1834V73.7183H271.565V4.55469H257.552V30.4031C256.346 28.5875 254.897 27.0464 253.205 25.7798C250.243 23.5456 246.592 22.4285 242.253 22.4285C237.865 22.4285 234.028 23.5051 230.742 25.6584C227.455 27.8116 224.921 30.8635 223.14 34.8138C221.36 38.7642 220.469 43.3783 220.469 48.6562C220.469 53.9342 221.36 58.5483 223.14 62.4987C224.921 66.449 227.455 69.5009 230.742 71.6541ZM252.671 61.8916C250.923 63.0411 248.834 63.6158 246.405 63.6158C243.977 63.6158 241.88 63.0572 240.116 61.9401C238.367 60.8068 237.023 59.1474 236.084 56.9617C235.162 54.7599 234.7 52.0804 234.7 48.9234C234.7 45.7501 235.17 43.0302 236.109 40.7636C237.048 38.4808 238.391 36.7404 240.14 35.5424C241.905 34.3443 243.993 33.7453 246.405 33.7453C248.834 33.7453 250.923 34.3281 252.671 35.4938C254.42 36.6595 255.763 38.3675 256.702 40.6179C257.641 42.8521 258.111 45.5478 258.111 48.7048C258.111 51.8619 257.641 54.5575 256.702 56.7917C255.763 59.0259 254.42 60.7259 252.671 61.8916Z" fill="black"/>
<path fill-rule="evenodd" clip-rule="evenodd" d="M330.537 73.7175C330.424 73.3452 330.311 72.9647 330.197 72.5761C330.1 72.1714 330.011 71.7586 329.93 71.3376C329.768 70.5929 329.623 69.84 329.493 69.0791C329.402 68.4505 329.326 67.8432 329.266 67.257C329.018 67.6591 328.753 68.0479 328.473 68.4234C326.87 70.5929 324.758 72.2523 322.135 73.4018C319.512 74.5351 316.452 75.1018 312.955 75.1018C309.345 75.1018 306.18 74.5351 303.46 73.4018C300.74 72.2685 298.627 70.5767 297.121 68.3263C295.632 66.0597 294.887 63.2912 294.887 60.0208C294.887 57.1552 295.51 54.6538 296.757 52.5168C298.02 50.3797 300.052 48.6231 302.853 47.2469C305.653 45.8708 309.304 44.9479 313.805 44.4784L321.916 43.677C323.503 43.5151 324.798 43.2399 325.802 42.8513C326.806 42.4466 327.559 41.8799 328.06 41.1514C328.578 40.4228 328.838 39.4838 328.838 38.3343C328.838 37.0229 328.562 35.9463 328.012 35.1044C327.461 34.2625 326.563 33.6392 325.316 33.2345C324.086 32.8135 322.459 32.6031 320.435 32.6031C318.314 32.6031 316.598 32.8297 315.287 33.2831C313.975 33.7364 312.979 34.4973 312.299 35.5658C311.636 36.6344 311.239 38.0996 311.109 39.9614H297.121C297.299 36.1892 298.198 33.0159 299.817 30.4417C301.452 27.8513 303.97 25.868 307.37 24.4919C310.77 23.1157 315.165 22.4277 320.556 22.4277C325.753 22.4277 329.995 23.0429 333.282 24.2733C336.568 25.5038 338.964 27.2523 340.47 29.5189C341.992 31.7855 342.753 34.5135 342.753 37.7029V63.8336C342.753 64.6754 342.809 65.6873 342.923 66.8692C343.036 68.0349 343.198 69.2329 343.409 70.4634C343.635 71.6776 343.886 72.7623 344.161 73.7175H330.537ZM328.838 49.7274V54.2167C328.838 56.6938 328.311 58.7742 327.259 60.4579C326.223 62.1417 324.814 63.3964 323.033 64.2221C321.269 65.0478 319.302 65.4607 317.132 65.4607C315.367 65.4607 313.886 65.2178 312.688 64.7321C311.506 64.2302 310.624 63.5098 310.041 62.5707C309.458 61.6155 309.167 60.466 309.167 59.1223C309.167 57.8433 309.426 56.7585 309.944 55.8681C310.478 54.9776 311.344 54.2491 312.542 53.6824C313.74 53.1158 315.343 52.711 317.351 52.4682L323.349 51.7154C325.373 51.4725 326.927 51.0192 328.012 50.3554C328.31 50.1715 328.585 49.9622 328.838 49.7274Z" fill="black"/>
<path d="M350.781 23.5938V73.7179H364.794V23.5938H350.781Z" fill="black"/>
<path d="M357.747 18.6702C361.75 18.6702 364.994 15.4255 364.994 11.423C364.994 7.42046 361.75 4.17578 357.747 4.17578C353.745 4.17578 350.5 7.42046 350.5 11.423C350.5 15.4255 353.745 18.6702 357.747 18.6702Z" fill="black"/>
<path fill-rule="evenodd" clip-rule="evenodd" d="M28.7702 28.0247C23.7483 33.0466 22.7893 40.6052 25.915 46.5933C26.9692 48.6129 26.1865 51.1047 24.1669 52.1589C22.1473 53.2131 19.6555 52.4305 18.6014 50.4109C13.8559 41.3196 15.2938 29.8338 22.9366 22.1911C32.358 12.7696 47.6331 12.7696 57.0545 22.1911C66.4759 31.6125 66.4759 46.8875 57.0545 56.3089C49.4117 63.9517 37.926 65.3895 28.8347 60.6441C26.8151 59.5899 26.0325 57.0981 27.0866 55.0785C28.1408 53.0589 30.6326 52.2764 32.6522 53.3306C38.6403 56.4562 46.1989 55.4972 51.2208 50.4753C57.4204 44.2758 57.4204 34.2243 51.2208 28.0247C45.0213 21.8251 34.9698 21.8251 28.7702 28.0247Z" fill="black"/>
<path fill-rule="evenodd" clip-rule="evenodd" d="M18.1641 17.4177C6.10674 29.4752 6.10674 49.0241 18.1641 61.0816C30.2216 73.139 49.7706 73.139 61.828 61.0816C72.6064 50.3032 73.752 33.5303 65.2544 21.4835C63.9412 19.6219 64.3859 17.0482 66.2475 15.735C68.1091 14.4219 70.6828 14.8665 71.996 16.7281C82.7681 31.9994 81.3268 53.25 67.6616 66.9152C52.3824 82.1945 27.6098 82.1945 12.3305 66.9152C-2.94871 51.636 -2.94872 26.8634 12.3305 11.5841C26.0155 -2.1008 47.3079 -3.52653 62.584 7.29671C64.4429 8.61375 64.8821 11.1883 63.5651 13.0472C62.248 14.9061 59.6734 15.3453 57.8145 14.0283C45.7641 5.4905 28.9582 6.62373 18.1641 17.4177Z" fill="black"/>
<path d="M46.36 32.886C49.8747 36.4007 49.8747 42.0992 46.36 45.6139C42.8453 49.1286 37.1468 49.1286 33.6321 45.6139C30.1174 42.0992 30.1174 36.4007 33.6321 32.886C37.1468 29.3713 42.8453 29.3713 46.36 32.886Z" fill="#01FF86"/>
</g>
<defs>
<clipPath id="clip0_2640_56">
<rect width="365" height="79" fill="white" transform="translate(0.5)"/>
</clipPath>
</defs>
</svg>
